<svg width="19" height="26" viewBox="0 0 19 26" fill="none" xmlns="http://www.w3.org/2000/svg">
<path d="M6.15301 25.5C5.54446 25.5 5.077 24.961 5.16306 24.3586L6.08694 17.8914C6.173 17.289 5.70554 16.75 5.09699 16.75H1.90857C1.10191 16.75 0.627216 15.844 1.08638 15.1808L10.9518 0.93079C11.1385 0.660992 11.4458 0.5 11.774 0.5H12.6172C13.2187 0.5 13.6841 1.02718 13.6095 1.62403L12.6405 9.37597C12.5659 9.97282 13.0313 10.5 13.6328 10.5H17.865C18.7128 10.5 19.176 11.4889 18.6332 12.1402L7.79985 25.1402C7.60985 25.3682 7.3284 25.5 7.03163 25.5H6.15301Z" fill="currentColor"/>
</svg>
