<svg xmlns="http://www.w3.org/2000/svg" width="50" height="49" fill="none" viewBox="0 0 50 49">
  <path fill="#4B4B4B" d="M26.73 34.636v.796h-2.579v-.796h2.58ZM24.797 39v-4.776c0-.293.06-.537.182-.732a1.15 1.15 0 0 1 .494-.438 1.6 1.6 0 0 1 .688-.145c.178 0 .336.014.474.043.139.028.24.054.307.076l-.204.796a1.75 1.75 0 0 0-.165-.04.993.993 0 0 0-.222-.023c-.191 0-.327.047-.406.14-.078.09-.117.221-.117.392V39h-1.03Z"/>
  <path stroke="#4B4B4B" stroke-dasharray="2.6 2.6" stroke-linecap="round" stroke-width="1.3" d="M14 25h23"/>
  <path stroke="#4B4B4B" stroke-linecap="round" stroke-width="1.8" d="M15 24.5s1.179-5.5 5.25-5.5 5.25 5.5 5.25 5.5 1.179 5.5 5.25 5.5S36 24.5 36 24.5M14 18v14m23-14v14"/>
</svg>
