<svg width="26" height="25" viewBox="0 0 26 25" fill="none" xmlns="http://www.w3.org/2000/svg">
<path d="M15.8125 24.2812C15.6042 24.2812 15.4062 24.2656 15.2188 24.2344C15.0312 24.2031 14.8438 24.1667 14.6562 24.125V0.5C14.8438 0.458333 15.0312 0.421875 15.2188 0.390625C15.4062 0.359375 15.6042 0.34375 15.8125 0.34375C16.9375 0.34375 17.9167 0.713542 18.75 1.45312C19.5833 2.19271 20.0833 3.10417 20.25 4.1875C21.5 4.41667 22.5469 5.02604 23.3906 6.01562C24.2344 7.00521 24.6562 8.16667 24.6562 9.5C24.6562 9.875 24.6198 10.2396 24.5469 10.5938C24.474 10.9479 24.3646 11.2917 24.2188 11.625C24.6979 12.1458 25.0677 12.7656 25.3281 13.4844C25.5885 14.2031 25.7188 14.9062 25.7188 15.5938C25.7188 17.0938 25.1615 18.3698 24.0469 19.4219C22.9323 20.474 21.625 21 20.125 21C19.8542 21.9583 19.3281 22.7448 18.5469 23.3594C17.7656 23.974 16.8542 24.2812 15.8125 24.2812ZM10.1875 24.2812C9.14583 24.2812 8.22917 23.974 7.4375 23.3594C6.64583 22.7448 6.11458 21.9583 5.84375 21C4.34375 21 3.04167 20.474 1.9375 19.4219C0.833333 18.3698 0.28125 17.0938 0.28125 15.5938C0.28125 14.8854 0.416667 14.2031 0.6875 13.5469C0.958333 12.8906 1.34375 12.3021 1.84375 11.7813C1.67708 11.4271 1.55208 11.0625 1.46875 10.6875C1.38542 10.3125 1.34375 9.91667 1.34375 9.5C1.34375 8.1875 1.76042 7.03125 2.59375 6.03125C3.42708 5.03125 4.46875 4.41667 5.71875 4.1875C5.88542 3.08333 6.38542 2.16667 7.21875 1.4375C8.05208 0.708333 9.04167 0.34375 10.1875 0.34375C10.3958 0.34375 10.5938 0.359375 10.7813 0.390625C10.9688 0.421875 11.1562 0.458333 11.3438 0.5V24.125C11.1562 24.1667 10.9688 24.2031 10.7813 24.2344C10.5938 24.2656 10.3958 24.2812 10.1875 24.2812Z" fill="#585858"/>
</svg>
