<svg width="22" height="24" viewBox="0 0 22 24" fill="none" xmlns="http://www.w3.org/2000/svg">
<path d="M11 11.625C9.41667 11.625 8.07292 11.0729 6.96875 9.96875C5.86458 8.86458 5.3125 7.52083 5.3125 5.9375C5.3125 4.35417 5.86458 3.01042 6.96875 1.90625C8.07292 0.802083 9.41667 0.25 11 0.25C12.5833 0.25 13.9271 0.802083 15.0312 1.90625C16.1354 3.01042 16.6875 4.35417 16.6875 5.9375C16.6875 7.52083 16.1354 8.86458 15.0312 9.96875C13.9271 11.0729 12.5833 11.625 11 11.625ZM0.0625 23.9063V19.4375C0.0625 18.5833 0.267604 17.8141 0.677813 17.1297C1.08802 16.4451 1.63292 15.9227 2.3125 15.5625C3.6875 14.8542 5.10323 14.3229 6.55969 13.9688C8.01615 13.6146 9.49531 13.4375 10.9972 13.4375C12.4991 13.4375 13.9792 13.6146 15.4375 13.9688C16.8958 14.3229 18.3125 14.8542 19.6875 15.5625C20.3673 15.9227 20.9122 16.4451 21.3222 17.1297C21.7324 17.8141 21.9375 18.5833 21.9375 19.4375V23.9063H0.0625Z" fill="#585858"/>
</svg>
