<svg xmlns="http://www.w3.org/2000/svg" width="50" height="49" fill="none" viewBox="0 0 50 49">
  <path fill="#4B4B4B" d="M20.176 35.023v-3.75h.86v.467h.026a.951.951 0 0 1 .151-.24.758.758 0 0 1 .252-.188.842.842 0 0 1 .37-.075 1 1 0 0 1 .53.15c.166.099.3.252.402.46.101.206.152.47.152.791 0 .31-.049.568-.147.776a1.004 1.004 0 0 1-.943.625.868.868 0 0 1-.357-.067.775.775 0 0 1-.254-.178.853.853 0 0 1-.156-.236h-.018v1.465h-.868Zm.85-2.387c0 .147.02.275.06.384.04.109.097.193.171.254a.431.431 0 0 0 .272.089.42.42 0 0 0 .272-.09.55.55 0 0 0 .168-.253c.04-.109.059-.237.059-.384 0-.146-.02-.274-.059-.381a.537.537 0 0 0-.168-.25.419.419 0 0 0-.272-.09.43.43 0 0 0-.272.087.547.547 0 0 0-.172.25 1.124 1.124 0 0 0-.058.384Z"/>
  <path stroke="#4B4B4B" stroke-dasharray="2.6 2.6" stroke-linecap="round" stroke-width="1.3" d="M15 25h22"/>
  <path stroke="#4B4B4B" stroke-linecap="round" stroke-width="1.8" d="M16 24.5s1.179-5.5 5.25-5.5 5.25 5.5 5.25 5.5 1.179 5.5 5.25 5.5S37 24.5 37 24.5M15 18v14m12-14v14"/>
</svg>
